<svg xmlns="http://www.w3.org/2000/svg" viewBox="0 0 1920 186.94"><g id="Layer_2" data-name="Layer 2"><g id="Layer_1-2" data-name="Layer 1"><path d="M1727.41,138.93c-27.53-3-55.12-6-82.81-6.33-33.35-.41-66.64,3-100,2.88-69.8-.31-138.75-16.32-208.54-17.8-33.78-.71-68.76,1.11-102.41-2-12.89-.92-62.48,0-66,0s-7-3.47-19.68-3.47c-11.55,0-18.34,2.86-19.49,3.39a.88.88,0,0,1-.39.08h-29.09a1,1,0,0,1-.94-.76l-.86-4.34a.57.57,0,0,1,.56-.68h.78a.83.83,0,0,0,.83-.83V106a.65.65,0,0,0-.65-.65h-1a.61.61,0,0,1-.61-.61V99.51c0-1.15,3.47-2.31,3.47-4.62s-.61-4.73-2.93-8.2-6.33-10.32-7.48-10.32-10.42,15-10.42,18.52c0,2.76,2.94,4.38,4.13,4.92a.84.84,0,0,1,.5.78V103a.88.88,0,0,1-.74.88l-.94.16a.74.74,0,0,0-.63.74v3.37a.62.62,0,0,0,.62.62h.84a.85.85,0,0,1,.85.85v6.08c0,1.61-1.94,2.65-4.48,3.34l-11.72.25v-1.65a.81.81,0,0,1,.76-.81c2-.13,7.34-.84,7.34-4.6,0-4.27-13.77-35.1-15.92-39.88a1,1,0,0,0-1-.62c-5,0-35.38-.09-37.5-1.15s-1.42-7.9-1.22-9.88a.77.77,0,0,1,.55-.68c1.19-.37,4.14-1.48,4.14-3.33,0-2.31-25.46-56.7-26.62-56.7s-24.3,50.91-24.3,55.54,4.63,8.1,4.63,8.1v22.6a1.65,1.65,0,0,0,.33,1l2.93,3.9a1,1,0,0,1,.2.65l-1,29.41-9.35.21V110.9a.92.92,0,0,1,.91-.92c2.11,0,7.19-.58,7.19-7,0-8.1-25.54-30.31-25.54-30.31s.81-10.58-4.17-10.73c-8.09-.23-8.48,3.45-8.48,3.45v6.34s-11.57,0-15,1.16-6.94,10.41-10.41,10.41-3.47-12.72-8.1-13.88-38.21-3.49-46.31,1.14c-6.43,3.68-19.42,23.14-24.5,30.5a3.09,3.09,0,0,0,1.29,4.58l5.9,2.63-.19,12.47c0,.85-1.08,1.79-1.7,1.2l-6.76-6.43a1.62,1.62,0,0,0-2.64.09l-5.51,8.29a1.78,1.78,0,0,1-.62.63l-2.16,0-5.48-1a1.93,1.93,0,0,1-1.58-1.89V109.93h2.12a.88.88,0,0,0,.8-1.24l-6.71-7.27a1.32,1.32,0,0,0-2.09-.45l-6.57,8.74a.86.86,0,0,0,.58,1.51h1.46v5.65l-1.44.23a2.63,2.63,0,0,0-1.21.72l-.28.43a3,3,0,0,0-.55,2.07h0a1.18,1.18,0,0,0,1.18,1.18h2.3V125l-4.5.1c-4.73-2.31-14.83-7-18.65-7-3.51,0-13.34,4-17.87,6a3.81,3.81,0,0,0-2,1.88l-79.09,1.72c-69.4,3-138,6.55-207.4,5.05-43.89-.94-87.75-3.69-131.65-3.92-66-.34-131.86,5-197.64,10.3C100.06,143,49,147.22,0,151.19v35.75H1920V160.11C1855,153.05,1792.39,146,1727.41,138.93Z"/></g></g></svg>