<svg xmlns="http://www.w3.org/2000/svg" viewBox="0 0 910.75 204.88"><g id="Layer_2" data-name="Layer 2"><g id="Layer_1-2" data-name="Layer 1"><path d="M0,166.24S280.57,129.6,284,129.6h5.4a1,1,0,0,0,1-1v-1a3.84,3.84,0,0,1,2.33-3.55c4.54-1.94,14.37-6,17.88-6,4.63,0,18.52,6.94,20.83,8.1s2.32,0,2.32,0V121.5h-2.3a1.18,1.18,0,0,1-1.18-1.18h0a3,3,0,0,1,.55-2.07l.28-.43a2.63,2.63,0,0,1,1.21-.72l1.44-.23v-5.65h-1.46a.86.86,0,0,1-.58-1.51l6.57-8.74a1.32,1.32,0,0,1,2.09.45l6.71,7.27a.88.88,0,0,1-.8,1.24h-2.12v11.76a1.93,1.93,0,0,0,1.58,1.89l6.48,1.17a1.69,1.69,0,0,0,1.78-.85l5.51-8.29a1.62,1.62,0,0,1,2.64-.09L369,122c.62.59,1.74-.35,1.7-1.2l.19-12.47-5.9-2.63a3.09,3.09,0,0,1-1.29-4.58c5.08-7.36,18.07-26.82,24.5-30.5,8.1-4.63,41.68-2.3,46.31-1.14s4.63,13.88,8.1,13.88S449.51,74.06,453,72.9s15-1.16,15-1.16V65.4s.39-3.68,8.48-3.45c5,.15,4.17,10.73,4.17,10.73S506.21,94.89,506.21,103c0,6.41-5.08,7-7.19,7a.92.92,0,0,0-.91.92v14.29a.73.73,0,0,0,.91.71l7.37-1.84a1.34,1.34,0,0,0,1-1.25l1.11-31a1,1,0,0,0-.2-.65l-2.93-3.9a1.65,1.65,0,0,1-.33-1V63.64s-4.63-3.47-4.63-8.1S523.57,0,524.72,0s26.62,54.39,26.62,56.7c0,1.85-3,3-4.14,3.33a.78.78,0,0,0-.55.68c-.2,2-.76,8.89,1.22,9.88s32.55,1.14,37.5,1.15a1,1,0,0,1,1,.62c2.15,4.78,15.92,35.61,15.92,39.88,0,3.76-5.33,4.47-7.34,4.6a.81.81,0,0,0-.76.81v1.73a1,1,0,0,0,1,1c3.49-.09,15.23-.68,15.23-4.62v-6.08a.85.85,0,0,0-.85-.85h-.84a.62.62,0,0,1-.62-.62v-3.37a.74.74,0,0,1,.63-.74l.94-.16a.88.88,0,0,0,.74-.88v-2.41a.84.84,0,0,0-.5-.78c-1.19-.54-4.13-2.16-4.13-4.92,0-3.48,9.26-18.52,10.42-18.52s5.17,6.84,7.48,10.32,2.93,5.88,2.93,8.2-3.47,3.47-3.47,4.62v5.18a.61.61,0,0,0,.61.61h1a.65.65,0,0,1,.65.65v3.15a.83.83,0,0,1-.83.83h-.78a.57.57,0,0,0-.56.68l.86,4.34a1,1,0,0,0,.94.76h29.09a.91.91,0,0,0,.39-.08c1.15-.53,7.94-3.39,19.49-3.39,12.73,0,16.2,3.47,19.68,3.47s216.5,17.88,216.5,17.88l.58,46.54L0,204.88Z"/></g></g></svg>